<svg id="svg-badge" width="564" height="168" version="1.1" viewBox="0 0 564 168" xmlns="http://www.w3.org/2000/svg" xmlns:xlink="http://www.w3.org/1999/xlink">
 <defs>
  <filter id="filter19409" x="-.021351" y="-.095153" width="1.0427" height="1.1903" color-interpolation-filters="sRGB">
   <feGaussianBlur stdDeviation="0.75744873"/>
  </filter>
  <filter id="filter23804" x="-.070734" y="-.32804" width="1.1415" height="1.6561" color-interpolation-filters="sRGB">
   <feGaussianBlur stdDeviation="2.431463"/>
  </filter>
  <filter id="filter23838" x="-4.8748" y="-4.2281" width="10.75" height="9.4563" color-interpolation-filters="sRGB">
   <feGaussianBlur stdDeviation="45.25"/>
  </filter>
  <filter id="filter35901" x="-.026311" y="-.11698" width="1.0526" height="1.234" color-interpolation-filters="sRGB">
   <feGaussianBlur stdDeviation="0.82188447"/>
  </filter>
 </defs>
 <g>
  <rect x="1.5" y="1.5" width="561" height="165" ry="14.224"/>
  <g fill="#2185d0">
   <rect x="182.5" y="84.177" width="357.5" height="49.823" filter="url(#filter23838)" style="mix-blend-mode:normal"/>
   <rect x="187.36" y="23.821" width="164.08" height="25.685" filter="url(#filter23838)" style="mix-blend-mode:normal"/>
   <rect x="495.5" y="96.075" width="44.5" height="54.913" filter="url(#filter23838)" style="mix-blend-mode:normal"/>
   <rect x="182.5" y="67.192" width="57.228" height="66.227" filter="url(#filter23838)" style="mix-blend-mode:normal"/>
   <rect x="364.92" y="67.192" width="23.692" height="58.802" filter="url(#filter23838)" style="mix-blend-mode:normal"/>
   <rect x="302.94" y="67.192" width="22.278" height="58.802" filter="url(#filter23838)" style="mix-blend-mode:normal"/>
  </g>
  <rect transform="matrix(.86218 0 0 1.1547 38.865 -12.997)" x="2" y="2" width="560" height="164" ry="15.111" fill="none" filter="url(#filter23838)" stroke="#2185d0" stroke-linejoin="round" stroke-width="20" style="mix-blend-mode:normal" paint-order="fill stroke markers"/>
  <g transform="translate(-3.3014 -235.37)" filter="url(#filter23838)" stroke="#2185d0" stroke-width="20" style="mix-blend-mode:normal">
   <g transform="translate(3.3014 233.52)" fill="none" stroke="#2185d0" stroke-width="20" paint-order="stroke markers fill">
    <path d="m94.88 50.345c-0.54326-0.40627-0.8925 3e-6 -0.8925 3e-6l26.107 95.029c12.299-5.206 22.695-13.966 29.808-25.117l-54.169-68.828c-0.10457-0.1306-0.85343-1.0834-0.85343-1.0834z" style="font-variation-settings:normal"/>
    <path d="m93.742 20.95c-36.348 0.13426-65.742 29.132-65.742 64.857-2.97e-4 12.185 3.4917 24.123 10.076 34.447l55.019-69.909c0.39623-0.50484 1.3888-0.50484 1.785 0l55.022 69.912c6.5855-10.325 10.078-22.264 10.078-34.45 0-35.82-29.545-64.857-65.99-64.857-0.08267-1.53e-4 -0.16533-1.53e-4 -0.248 0z"/>
   </g>
  </g>
  <g fill="none" stroke="#2185d0">
   <path d="m214.65 72.065c-8.453 0-15.047 2.79-19.803 8.369-4.803 5.577-7.215 12.943-7.215 22.096 0 7.034 1.764 13.158 5.281 18.372 4.862 7.275 12.274 10.912 22.2 10.912 6.907 0 12.922-2.516 18.049-7.548l-4.718-7.185c-4.57 2.85-8.512 4.275-11.844 4.275-5.069 0-9.112-1.91-12.12-5.729-2.847-3.638-4.271-8.004-4.271-13.097 0-5.76 1.211-10.428 3.613-14.005 2.773-4.183 6.694-6.274 11.747-6.274 3.65 0 7.684 1.574 12.11 4.728l4.734-7.546c-5.925-4.91-11.844-7.368-17.763-7.368zm167.7 0-11.657 6.456v52.201h9.441l0.925-4.091c2.843 3.455 6.844 5.183 12.03 5.183 5.238 0 9.638-1.548 13.224-4.64 4.56-4.061 6.85-10.033 6.85-17.914 0-6.122-1.547-11.033-4.634-14.732-3.523-4.184-8.38-6.275-14.612-6.275-2.226 0-4.266 0.418-6.105 1.274-2.348 1.09-4.176 2.607-5.462 4.546zm-62.745 0.183-11.674 6.367v13.186c-2.895-2.304-6.471-3.455-10.722-3.455-4.93 0-9.16 1.606-12.667 4.82-4.692 4.304-7.056 10.427-7.056 18.37 0 5.638 1.466 10.247 4.362 13.824 3.454 4.304 8.486 6.456 15.085 6.456 2.343 0 4.622-0.517 6.838-1.547 2.232-1.03 3.83-2.334 4.825-3.909l1.663 4.364h9.346zm-65.647 16.098c-6.057 0-10.956 1.878-14.718 5.636-4.139 4.123-6.206 9.52-6.206 16.188 0 5.88 1.855 10.854 5.553 14.916 4.134 4.486 9.272 6.73 15.371 6.73 5.255 0 9.84-1.759 13.783-5.275 4.75-4.183 7.125-9.641 7.125-16.371 0-5.758-1.599-10.638-4.808-14.641-3.826-4.79-9.192-7.183-16.1-7.183zm91.746 0c-5.988 0-10.914 1.94-14.819 5.82-4.314 4.245-6.477 9.609-6.477 16.096 0 6.61 1.923 11.792 5.744 15.552 4.017 4 9.596 6.002 16.758 6.002 6.647 0 12.205-1.94 16.641-5.822l-2.964-6.092c-4.368 2.426-8.56 3.637-12.572 3.637-2.842 0-5.302-0.908-7.401-2.728-2.051-1.88-3.194-4.214-3.417-7.001h28.852v-4.183c0-6.003-1.6-10.885-4.809-14.643-3.693-4.427-8.884-6.638-15.536-6.638zm92.543 0c-5.978 0-10.909 1.94-14.803 5.82-4.326 4.245-6.472 9.609-6.472 16.096 0 6.61 1.907 11.792 5.733 15.552 4 4 9.585 6.002 16.753 6.002 6.658 0 12.205-1.94 16.652-5.822l-2.954-6.092c-4.389 2.426-8.587 3.637-12.588 3.637-2.837 0-5.308-0.908-7.406-2.728-2.04-1.88-3.183-4.214-3.427-7.001h28.878v-4.183c0-6.003-1.605-10.885-4.814-14.643-3.709-4.427-8.879-6.638-15.552-6.638zm45.163 0c-1.838 0-3.672 0.485-5.462 1.455-1.727 0.908-2.901 2-3.512 3.272l-1.11-3.635h-9.9v41.286h11.477v-29.649c0.978-2.12 2.524-3.18 4.623-3.18 2.28 0 4.442 1.15 6.466 3.454l9.814-5.274c-2.71-5.154-6.844-7.73-12.396-7.73zm30.121 0c-4.883 0-9.107 1.606-12.683 4.82-4.691 4.304-7.024 10.427-7.024 18.37 0 5.577 1.435 10.186 4.336 13.824 3.4 4.304 8.188 6.456 14.351 6.456 5.064 0 8.974-2.032 11.759-6.094 0 9.094-3.342 13.642-10 13.642-4.697 0-8.921-1.213-12.683-3.638l-2.954 5.82c4.856 4.365 10.637 6.549 17.295 6.549 6.413 0 11.354-1.85 14.813-5.549 3.502-3.758 5.266-9.125 5.255-16.098v-37.01h-8.974l-0.914 4.455c0-0.604-0.893-1.515-2.688-2.728-2.716-1.879-6.005-2.82-9.889-2.82zm-167.92 8.094c5.553 0 8.496 2.97 8.794 8.912h-17.869c0.675-5.942 3.704-8.912 9.075-8.912zm92.554 0c5.547 0 8.474 2.97 8.788 8.912h-17.858c0.674-5.942 3.703-8.912 9.07-8.912zm-184.2 0.089c5.989 0 8.98 4.547 8.98 13.64 0 8.732-2.991 13.097-8.98 13.097-5.982 0-8.98-4.365-8.98-13.096 0-9.094 2.998-13.641 8.98-13.641zm45.748 0c2.04 0 3.794 0.67 5.282 2.002 1.53 1.272 2.518 2.908 2.943 4.909v11.55c-0.318 2.243-1.408 4.243-3.315 6.002-1.913 1.698-3.985 2.547-6.2 2.547-5.989 0-8.98-4.516-8.98-13.55 0-4.123 0.924-7.396 2.778-9.82 1.85-2.426 4.347-3.64 7.492-3.64zm216.31 0c1.982 0 3.762 0.7 5.377 2.093 1.669 1.335 2.625 2.94 2.875 4.818v10.46c0 2.607-0.935 4.878-2.785 6.82-1.854 1.878-4.043 2.819-6.572 2.819-6.047 0-9.075-4.516-9.075-13.55 0-4.123 0.924-7.396 2.779-9.82 1.849-2.426 4.325-3.64 7.401-3.64zm-124.32 0.094c2.832 0 5.048 1.211 6.663 3.637 1.594 2.425 2.407 5.728 2.407 9.912 0 4.244-0.866 7.58-2.598 10.006-1.727 2.424-4.07 3.637-7.019 3.637-2.295 0-4.31-0.76-6.03-2.274-1.68-1.518-2.604-3.396-2.769-5.637v-9.916c0-2.606 0.893-4.818 2.673-6.637 1.854-1.817 4.075-2.728 6.673-2.728z" filter="url(#filter23804)" font-family="Tajawal" font-size="17.899px" font-weight="700" letter-spacing="-.285" stroke-width="7" word-spacing="0" style="font-variant-caps:normal;font-variant-east-asian:normal;font-variant-ligatures:normal;font-variant-numeric:normal;mix-blend-mode:normal" aria-label="Codeberg"/>
   <text transform="scale(1.0087 .99138)" x="184.13197" y="49.198929" color="#000000" filter="url(#filter23804)" font-family="Inter, 'DejaVu Sans', sans-serif" font-size="11.814px" font-weight="400" letter-spacing="0" overflow="visible" stroke-width="5" word-spacing="0" style="line-height:0%;mix-blend-mode:normal"><tspan x="184.13197" y="49.198929" fill="none" font-size="33.596px" stroke="#2185d0" stroke-width="5" style="line-height:1">GET IT ON</tspan></text>
   <rect x="2" y="2" width="560" height="164" ry="15.111" filter="url(#filter23804)" stroke-linejoin="round" stroke-width="7" style="mix-blend-mode:normal" paint-order="fill stroke markers"/>
  </g>
  <g transform="translate(-3.3014 -234.18)" filter="url(#filter23804)" stroke="#2185d0" stroke-width="7" style="mix-blend-mode:normal">
   <g transform="translate(3.3014 233.52)" fill="none" stroke="#2185d0" stroke-width="7" paint-order="stroke markers fill">
    <path d="m94.88 50.345c-0.54326-0.40627-0.8925 3e-6 -0.8925 3e-6l26.107 95.029c12.299-5.206 22.695-13.966 29.808-25.117l-54.169-68.828c-0.10457-0.1306-0.85343-1.0834-0.85343-1.0834z" style="font-variation-settings:normal"/>
    <path d="m93.742 20.95c-36.348 0.13426-65.742 29.132-65.742 64.857-2.97e-4 12.185 3.4917 24.123 10.076 34.447l55.019-69.909c0.39623-0.50484 1.3888-0.50484 1.785 0l55.022 69.912c6.5855-10.325 10.078-22.264 10.078-34.45 0-35.82-29.545-64.857-65.99-64.857-0.08267-1.53e-4 -0.16533-1.53e-4 -0.248 0z"/>
   </g>
  </g>
  <g fill="none" stroke="#4bafd0">
   <path d="m214.65 71.368c-8.453 0-15.047 2.79-19.803 8.369-4.803 5.577-7.215 12.943-7.215 22.096 0 7.034 1.764 13.158 5.281 18.372 4.862 7.275 12.274 10.912 22.2 10.912 6.907 0 12.922-2.516 18.049-7.548l-4.718-7.185c-4.57 2.85-8.512 4.275-11.844 4.275-5.069 0-9.112-1.91-12.12-5.729-2.847-3.638-4.271-8.004-4.271-13.097 0-5.76 1.211-10.428 3.613-14.005 2.773-4.183 6.694-6.274 11.747-6.274 3.65 0 7.684 1.574 12.11 4.728l4.734-7.546c-5.925-4.91-11.844-7.368-17.763-7.368zm167.7 0-11.657 6.456v52.201h9.441l0.925-4.091c2.843 3.455 6.844 5.183 12.03 5.183 5.238 0 9.638-1.548 13.224-4.64 4.56-4.061 6.85-10.033 6.85-17.914 0-6.122-1.547-11.033-4.634-14.732-3.523-4.184-8.38-6.275-14.612-6.275-2.226 0-4.266 0.418-6.105 1.274-2.348 1.09-4.176 2.607-5.462 4.546zm-62.745 0.183-11.674 6.367v13.186c-2.895-2.304-6.471-3.455-10.722-3.455-4.93 0-9.16 1.606-12.667 4.82-4.692 4.304-7.056 10.427-7.056 18.37 0 5.638 1.466 10.247 4.362 13.824 3.454 4.304 8.486 6.456 15.085 6.456 2.343 0 4.622-0.517 6.838-1.547 2.232-1.03 3.83-2.334 4.825-3.909l1.663 4.364h9.346zm-65.647 16.098c-6.057 0-10.956 1.878-14.718 5.636-4.139 4.123-6.206 9.52-6.206 16.188 0 5.88 1.855 10.854 5.553 14.916 4.134 4.486 9.272 6.73 15.371 6.73 5.255 0 9.84-1.759 13.783-5.275 4.75-4.183 7.125-9.641 7.125-16.371 0-5.758-1.599-10.638-4.808-14.641-3.826-4.79-9.192-7.183-16.1-7.183zm91.746 0c-5.988 0-10.914 1.94-14.819 5.82-4.314 4.245-6.477 9.609-6.477 16.096 0 6.61 1.923 11.792 5.744 15.552 4.017 4 9.596 6.002 16.758 6.002 6.647 0 12.205-1.94 16.641-5.822l-2.964-6.092c-4.368 2.426-8.56 3.637-12.572 3.637-2.842 0-5.302-0.908-7.401-2.728-2.051-1.88-3.194-4.214-3.417-7.001h28.852v-4.183c0-6.003-1.6-10.885-4.809-14.643-3.693-4.427-8.884-6.638-15.536-6.638zm92.543 0c-5.978 0-10.909 1.94-14.803 5.82-4.326 4.245-6.472 9.609-6.472 16.096 0 6.61 1.907 11.792 5.733 15.552 4 4 9.585 6.002 16.753 6.002 6.658 0 12.205-1.94 16.652-5.822l-2.954-6.092c-4.389 2.426-8.587 3.637-12.588 3.637-2.837 0-5.308-0.908-7.406-2.728-2.04-1.88-3.183-4.214-3.427-7.001h28.878v-4.183c0-6.003-1.605-10.885-4.814-14.643-3.709-4.427-8.879-6.638-15.552-6.638zm45.163 0c-1.838 0-3.672 0.485-5.462 1.455-1.727 0.908-2.901 2-3.512 3.272l-1.11-3.635h-9.9v41.286h11.477v-29.649c0.978-2.12 2.524-3.18 4.623-3.18 2.28 0 4.442 1.15 6.466 3.454l9.814-5.274c-2.71-5.154-6.844-7.73-12.396-7.73zm30.121 0c-4.883 0-9.107 1.606-12.683 4.82-4.691 4.304-7.024 10.427-7.024 18.37 0 5.577 1.435 10.186 4.336 13.824 3.4 4.304 8.188 6.456 14.351 6.456 5.064 0 8.974-2.032 11.759-6.094 0 9.094-3.342 13.642-10 13.642-4.697 0-8.921-1.213-12.683-3.638l-2.954 5.82c4.856 4.365 10.637 6.549 17.295 6.549 6.413 0 11.354-1.85 14.813-5.549 3.502-3.758 5.266-9.125 5.255-16.098v-37.01h-8.974l-0.914 4.455c0-0.604-0.893-1.515-2.688-2.728-2.716-1.879-6.005-2.82-9.889-2.82zm-167.92 8.094c5.553 0 8.496 2.97 8.794 8.912h-17.869c0.675-5.942 3.704-8.912 9.075-8.912zm92.554 0c5.547 0 8.474 2.97 8.788 8.912h-17.858c0.674-5.942 3.703-8.912 9.07-8.912zm-184.2 0.089c5.989 0 8.98 4.547 8.98 13.64 0 8.732-2.991 13.097-8.98 13.097-5.982 0-8.98-4.365-8.98-13.096 0-9.094 2.998-13.641 8.98-13.641zm45.748 0c2.04 0 3.794 0.67 5.282 2.002 1.53 1.272 2.518 2.908 2.943 4.909v11.55c-0.318 2.243-1.408 4.243-3.315 6.002-1.913 1.698-3.985 2.547-6.2 2.547-5.989 0-8.98-4.516-8.98-13.55 0-4.123 0.924-7.396 2.778-9.82 1.85-2.426 4.347-3.64 7.492-3.64zm216.31 0c1.982 0 3.762 0.7 5.377 2.093 1.669 1.335 2.625 2.94 2.875 4.818v10.46c0 2.607-0.935 4.878-2.785 6.82-1.854 1.878-4.043 2.819-6.572 2.819-6.047 0-9.075-4.516-9.075-13.55 0-4.123 0.924-7.396 2.779-9.82 1.849-2.426 4.325-3.64 7.401-3.64zm-124.32 0.094c2.832 0 5.048 1.211 6.663 3.637 1.594 2.425 2.407 5.728 2.407 9.912 0 4.244-0.866 7.58-2.598 10.006-1.727 2.424-4.07 3.637-7.019 3.637-2.295 0-4.31-0.76-6.03-2.274-1.68-1.518-2.604-3.396-2.769-5.637v-9.916c0-2.606 0.893-4.818 2.673-6.637 1.854-1.817 4.075-2.728 6.673-2.728z" filter="url(#filter35901)" font-family="Tajawal" font-size="17.899px" font-weight="700" letter-spacing="-.285" stroke-width="3" word-spacing="0" style="font-variant-caps:normal;font-variant-east-asian:normal;font-variant-ligatures:normal;font-variant-numeric:normal;mix-blend-mode:normal" aria-label="Codeberg"/>
   <text transform="scale(1.0087 .99138)" x="184.13197" y="49.198929" color="#000000" filter="url(#filter35901)" font-family="Inter, 'DejaVu Sans', sans-serif" font-size="11.814px" font-weight="400" letter-spacing="0" overflow="visible" stroke-width="2" word-spacing="0" style="line-height:0%;mix-blend-mode:normal"><tspan x="184.13197" y="49.198929" fill="none" font-size="33.596px" stroke="#4bafd0" stroke-width="2" style="line-height:1">GET IT ON</tspan></text>
   <rect x="2" y="2" width="560" height="164" ry="15.111" filter="url(#filter35901)" stroke-linejoin="round" stroke-width="3" style="mix-blend-mode:normal" paint-order="fill stroke markers"/>
  </g>
  <g transform="translate(-3.3014 -233.81)" filter="url(#filter35901)" style="mix-blend-mode:normal">
   <g transform="translate(3.3014 233.52)" fill="none" stroke="#4bafd0" stroke-width="3" paint-order="stroke markers fill">
    <path d="m94.88 50.345c-0.54326-0.40627-0.8925 3e-6 -0.8925 3e-6l26.107 95.029c12.299-5.206 22.695-13.966 29.808-25.117l-54.169-68.828c-0.10457-0.1306-0.85343-1.0834-0.85343-1.0834z" style="font-variation-settings:normal"/>
    <path d="m93.742 20.95c-36.348 0.13426-65.742 29.132-65.742 64.857-2.97e-4 12.185 3.4917 24.123 10.076 34.447l55.019-69.909c0.39623-0.50484 1.3888-0.50484 1.785 0l55.022 69.912c6.5855-10.325 10.078-22.264 10.078-34.45 0-35.82-29.545-64.857-65.99-64.857-0.08267-1.53e-4 -0.16533-1.53e-4 -0.248 0z"/>
   </g>
  </g>
  <g fill="none" stroke="#5dccef">
   <path d="m214.65 71.194c-8.453 0-15.047 2.79-19.803 8.369-4.803 5.577-7.215 12.943-7.215 22.096 0 7.034 1.764 13.158 5.281 18.372 4.862 7.275 12.274 10.912 22.2 10.912 6.907 0 12.922-2.516 18.049-7.548l-4.718-7.185c-4.57 2.85-8.512 4.275-11.844 4.275-5.069 0-9.112-1.91-12.12-5.729-2.847-3.638-4.271-8.004-4.271-13.097 0-5.76 1.211-10.428 3.613-14.005 2.773-4.183 6.694-6.274 11.747-6.274 3.65 0 7.684 1.574 12.11 4.728l4.734-7.546c-5.925-4.91-11.844-7.368-17.763-7.368zm167.7 0-11.657 6.456v52.201h9.441l0.925-4.091c2.843 3.455 6.844 5.183 12.03 5.183 5.238 0 9.638-1.548 13.224-4.64 4.56-4.061 6.85-10.033 6.85-17.914 0-6.122-1.547-11.033-4.634-14.732-3.523-4.184-8.38-6.275-14.612-6.275-2.226 0-4.266 0.418-6.105 1.274-2.348 1.09-4.176 2.607-5.462 4.546zm-62.745 0.183-11.674 6.367v13.186c-2.895-2.304-6.471-3.455-10.722-3.455-4.93 0-9.16 1.606-12.667 4.82-4.692 4.304-7.056 10.427-7.056 18.37 0 5.638 1.466 10.247 4.362 13.824 3.454 4.304 8.486 6.456 15.085 6.456 2.343 0 4.622-0.517 6.838-1.547 2.232-1.03 3.83-2.334 4.825-3.909l1.663 4.364h9.346zm-65.647 16.098c-6.057 0-10.956 1.878-14.718 5.636-4.139 4.123-6.206 9.52-6.206 16.188 0 5.88 1.855 10.854 5.553 14.916 4.134 4.486 9.272 6.73 15.371 6.73 5.255 0 9.84-1.759 13.783-5.275 4.75-4.183 7.125-9.641 7.125-16.371 0-5.758-1.599-10.638-4.808-14.641-3.826-4.79-9.192-7.183-16.1-7.183zm91.746 0c-5.988 0-10.914 1.94-14.819 5.82-4.314 4.245-6.477 9.609-6.477 16.096 0 6.61 1.923 11.792 5.744 15.552 4.017 4 9.596 6.002 16.758 6.002 6.647 0 12.205-1.94 16.641-5.822l-2.964-6.092c-4.368 2.426-8.56 3.637-12.572 3.637-2.842 0-5.302-0.908-7.401-2.728-2.051-1.88-3.194-4.214-3.417-7.001h28.852v-4.183c0-6.003-1.6-10.885-4.809-14.643-3.693-4.427-8.884-6.638-15.536-6.638zm92.543 0c-5.978 0-10.909 1.94-14.803 5.82-4.326 4.245-6.472 9.609-6.472 16.096 0 6.61 1.907 11.792 5.733 15.552 4 4 9.585 6.002 16.753 6.002 6.658 0 12.205-1.94 16.652-5.822l-2.954-6.092c-4.389 2.426-8.587 3.637-12.588 3.637-2.837 0-5.308-0.908-7.406-2.728-2.04-1.88-3.183-4.214-3.427-7.001h28.878v-4.183c0-6.003-1.605-10.885-4.814-14.643-3.709-4.427-8.879-6.638-15.552-6.638zm45.163 0c-1.838 0-3.672 0.485-5.462 1.455-1.727 0.908-2.901 2-3.512 3.272l-1.11-3.635h-9.9v41.286h11.477v-29.649c0.978-2.12 2.524-3.18 4.623-3.18 2.28 0 4.442 1.15 6.466 3.454l9.814-5.274c-2.71-5.154-6.844-7.73-12.396-7.73zm30.121 0c-4.883 0-9.107 1.606-12.683 4.82-4.691 4.304-7.024 10.427-7.024 18.37 0 5.577 1.435 10.186 4.336 13.824 3.4 4.304 8.188 6.456 14.351 6.456 5.064 0 8.974-2.032 11.759-6.094 0 9.094-3.342 13.642-10 13.642-4.697 0-8.921-1.213-12.683-3.638l-2.954 5.82c4.856 4.365 10.637 6.549 17.295 6.549 6.413 0 11.354-1.85 14.813-5.549 3.502-3.758 5.266-9.125 5.255-16.098v-37.01h-8.974l-0.914 4.455c0-0.604-0.893-1.515-2.688-2.728-2.716-1.879-6.005-2.82-9.889-2.82zm-167.92 8.094c5.553 0 8.496 2.97 8.794 8.912h-17.869c0.675-5.942 3.704-8.912 9.075-8.912zm92.554 0c5.547 0 8.474 2.97 8.788 8.912h-17.858c0.674-5.942 3.703-8.912 9.07-8.912zm-184.2 0.089c5.989 0 8.98 4.547 8.98 13.64 0 8.732-2.991 13.097-8.98 13.097-5.982 0-8.98-4.365-8.98-13.096 0-9.094 2.998-13.641 8.98-13.641zm45.748 0c2.04 0 3.794 0.67 5.282 2.002 1.53 1.272 2.518 2.908 2.943 4.909v11.55c-0.318 2.243-1.408 4.243-3.315 6.002-1.913 1.698-3.985 2.547-6.2 2.547-5.989 0-8.98-4.516-8.98-13.55 0-4.123 0.924-7.396 2.778-9.82 1.85-2.426 4.347-3.64 7.492-3.64zm216.31 0c1.982 0 3.762 0.7 5.377 2.093 1.669 1.335 2.625 2.94 2.875 4.818v10.46c0 2.607-0.935 4.878-2.785 6.82-1.854 1.878-4.043 2.819-6.572 2.819-6.047 0-9.075-4.516-9.075-13.55 0-4.123 0.924-7.396 2.779-9.82 1.849-2.426 4.325-3.64 7.401-3.64zm-124.32 0.094c2.832 0 5.048 1.211 6.663 3.637 1.594 2.425 2.407 5.728 2.407 9.912 0 4.244-0.866 7.58-2.598 10.006-1.727 2.424-4.07 3.637-7.019 3.637-2.295 0-4.31-0.76-6.03-2.274-1.68-1.518-2.604-3.396-2.769-5.637v-9.916c0-2.606 0.893-4.818 2.673-6.637 1.854-1.817 4.075-2.728 6.673-2.728z" filter="url(#filter19409)" font-family="Tajawal" font-size="17.899px" font-weight="700" letter-spacing="-.285" stroke-width="2" word-spacing="0" style="font-variant-caps:normal;font-variant-east-asian:normal;font-variant-ligatures:normal;font-variant-numeric:normal;mix-blend-mode:normal" aria-label="Codeberg"/>
   <text transform="scale(1.0087 .99138)" x="184.13197" y="49.198929" color="#000000" filter="url(#filter19409)" font-family="Inter, 'DejaVu Sans', sans-serif" font-size="11.814px" font-weight="400" letter-spacing="0" overflow="visible" stroke-width="1.2" word-spacing="0" style="line-height:0%;mix-blend-mode:normal"><tspan x="184.13197" y="49.198929" fill="none" font-size="33.596px" stroke="#5dccef" stroke-width="1.2" style="line-height:1">GET IT ON</tspan></text>
   <rect x="2" y="2" width="560" height="164" ry="15.111" filter="url(#filter19409)" stroke-linejoin="round" stroke-width="2" style="mix-blend-mode:normal" paint-order="fill stroke markers"/>
  </g>
  <g transform="translate(-3.3014 -233.72)" filter="url(#filter19409)" style="mix-blend-mode:normal">
   <g transform="translate(3.3014 233.52)" fill="none" stroke="#5dccef" stroke-width="2" paint-order="stroke markers fill">
    <path d="m94.88 50.345c-0.54326-0.40627-0.8925 3e-6 -0.8925 3e-6l26.107 95.029c12.299-5.206 22.695-13.966 29.808-25.117l-54.169-68.828c-0.10457-0.1306-0.85343-1.0834-0.85343-1.0834z" style="font-variation-settings:normal"/>
    <path d="m93.742 20.95c-36.348 0.13426-65.742 29.132-65.742 64.857-2.97e-4 12.185 3.4917 24.123 10.076 34.447l55.019-69.909c0.39623-0.50484 1.3888-0.50484 1.785 0l55.022 69.912c6.5855-10.325 10.078-22.264 10.078-34.45 0-35.82-29.545-64.857-65.99-64.857-0.08267-1.53e-4 -0.16533-1.53e-4 -0.248 0z"/>
   </g>
  </g>
  <g fill="none">
   <path d="m214.65 71.02c-8.453 0-15.047 2.79-19.803 8.369-4.803 5.577-7.215 12.943-7.215 22.096 0 7.034 1.764 13.158 5.281 18.372 4.862 7.275 12.274 10.912 22.2 10.912 6.907 0 12.922-2.516 18.049-7.548l-4.718-7.185c-4.57 2.85-8.512 4.275-11.844 4.275-5.069 0-9.112-1.91-12.12-5.729-2.847-3.638-4.271-8.004-4.271-13.097 0-5.76 1.211-10.428 3.613-14.005 2.773-4.183 6.694-6.274 11.747-6.274 3.65 0 7.684 1.574 12.11 4.728l4.734-7.546c-5.925-4.91-11.844-7.368-17.763-7.368zm167.7 0-11.657 6.456v52.201h9.441l0.925-4.091c2.843 3.455 6.844 5.183 12.03 5.183 5.238 0 9.638-1.548 13.224-4.64 4.56-4.061 6.85-10.033 6.85-17.914 0-6.122-1.547-11.033-4.634-14.732-3.523-4.184-8.38-6.275-14.612-6.275-2.226 0-4.266 0.418-6.105 1.274-2.348 1.09-4.176 2.607-5.462 4.546zm-62.745 0.183-11.674 6.367v13.186c-2.895-2.304-6.471-3.455-10.722-3.455-4.93 0-9.16 1.606-12.667 4.82-4.692 4.304-7.056 10.427-7.056 18.37 0 5.638 1.466 10.247 4.362 13.824 3.454 4.304 8.486 6.456 15.085 6.456 2.343 0 4.622-0.517 6.838-1.547 2.232-1.03 3.83-2.334 4.825-3.909l1.663 4.364h9.346zm-65.647 16.098c-6.057 0-10.956 1.878-14.718 5.636-4.139 4.123-6.206 9.52-6.206 16.188 0 5.88 1.855 10.854 5.553 14.916 4.134 4.486 9.272 6.73 15.371 6.73 5.255 0 9.84-1.759 13.783-5.275 4.75-4.183 7.125-9.641 7.125-16.371 0-5.758-1.599-10.638-4.808-14.641-3.826-4.79-9.192-7.183-16.1-7.183zm91.746 0c-5.988 0-10.914 1.94-14.819 5.82-4.314 4.245-6.477 9.609-6.477 16.096 0 6.61 1.923 11.792 5.744 15.552 4.017 4 9.596 6.002 16.758 6.002 6.647 0 12.205-1.94 16.641-5.822l-2.964-6.092c-4.368 2.426-8.56 3.637-12.572 3.637-2.842 0-5.302-0.908-7.401-2.728-2.051-1.88-3.194-4.214-3.417-7.001h28.852v-4.183c0-6.003-1.6-10.885-4.809-14.643-3.693-4.427-8.884-6.638-15.536-6.638zm92.543 0c-5.978 0-10.909 1.94-14.803 5.82-4.326 4.245-6.472 9.609-6.472 16.096 0 6.61 1.907 11.792 5.733 15.552 4 4 9.585 6.002 16.753 6.002 6.658 0 12.205-1.94 16.652-5.822l-2.954-6.092c-4.389 2.426-8.587 3.637-12.588 3.637-2.837 0-5.308-0.908-7.406-2.728-2.04-1.88-3.183-4.214-3.427-7.001h28.878v-4.183c0-6.003-1.605-10.885-4.814-14.643-3.709-4.427-8.879-6.638-15.552-6.638zm45.163 0c-1.838 0-3.672 0.485-5.462 1.455-1.727 0.908-2.901 2-3.512 3.272l-1.11-3.635h-9.9v41.286h11.477v-29.649c0.978-2.12 2.524-3.18 4.623-3.18 2.28 0 4.442 1.15 6.466 3.454l9.814-5.274c-2.71-5.154-6.844-7.73-12.396-7.73zm30.121 0c-4.883 0-9.107 1.606-12.683 4.82-4.691 4.304-7.024 10.427-7.024 18.37 0 5.577 1.435 10.186 4.336 13.824 3.4 4.304 8.188 6.456 14.351 6.456 5.064 0 8.974-2.032 11.759-6.094 0 9.094-3.342 13.642-10 13.642-4.697 0-8.921-1.213-12.683-3.638l-2.954 5.82c4.856 4.365 10.637 6.549 17.295 6.549 6.413 0 11.354-1.85 14.813-5.549 3.502-3.758 5.266-9.125 5.255-16.098v-37.01h-8.974l-0.914 4.455c0-0.604-0.893-1.515-2.688-2.728-2.716-1.879-6.005-2.82-9.889-2.82zm-167.92 8.094c5.553 0 8.496 2.97 8.794 8.912h-17.869c0.675-5.942 3.704-8.912 9.075-8.912zm92.554 0c5.547 0 8.474 2.97 8.788 8.912h-17.858c0.674-5.942 3.703-8.912 9.07-8.912zm-184.2 0.089c5.989 0 8.98 4.547 8.98 13.64 0 8.732-2.991 13.097-8.98 13.097-5.982 0-8.98-4.365-8.98-13.096 0-9.094 2.998-13.641 8.98-13.641zm45.748 0c2.04 0 3.794 0.67 5.282 2.002 1.53 1.272 2.518 2.908 2.943 4.909v11.55c-0.318 2.243-1.408 4.243-3.315 6.002-1.913 1.698-3.985 2.547-6.2 2.547-5.989 0-8.98-4.516-8.98-13.55 0-4.123 0.924-7.396 2.778-9.82 1.85-2.426 4.347-3.64 7.492-3.64zm216.31 0c1.982 0 3.762 0.7 5.377 2.093 1.669 1.335 2.625 2.94 2.875 4.818v10.46c0 2.607-0.935 4.878-2.785 6.82-1.854 1.878-4.043 2.819-6.572 2.819-6.047 0-9.075-4.516-9.075-13.55 0-4.123 0.924-7.396 2.779-9.82 1.849-2.426 4.325-3.64 7.401-3.64zm-124.32 0.094c2.832 0 5.048 1.211 6.663 3.637 1.594 2.425 2.407 5.728 2.407 9.912 0 4.244-0.866 7.58-2.598 10.006-1.727 2.424-4.07 3.637-7.019 3.637-2.295 0-4.31-0.76-6.03-2.274-1.68-1.518-2.604-3.396-2.769-5.637v-9.916c0-2.606 0.893-4.818 2.673-6.637 1.854-1.817 4.075-2.728 6.673-2.728z" font-family="Tajawal" font-size="17.899px" font-weight="700" letter-spacing="-.285" stroke="#fff" word-spacing="0" style="font-variant-caps:normal;font-variant-east-asian:normal;font-variant-ligatures:normal;font-variant-numeric:normal" aria-label="Codeberg"/>
   <text transform="scale(1.0087 .99138)" x="184.13202" y="49.198921" color="#000000" font-family="Inter, 'DejaVu Sans', sans-serif" font-size="11.814px" font-weight="400" letter-spacing="0" overflow="visible" stroke="#ffffff" stroke-width=".8" word-spacing="0" style="line-height:0%"><tspan id="claim-svg" x="184.13202" y="49.198921" fill="none" font-size="33.596px" stroke="#ffffff" stroke-width=".8" style="line-height:1">GET IT ON</tspan></text>
   <rect id="rect" x="2" y="2" width="560" height="164" ry="15.111" stroke="#fff" stroke-linejoin="round" paint-order="fill stroke markers"/>
  </g>
  <g transform="translate(-3.3014 -233.63)">
   <g transform="translate(3.3014 233.52)" fill="none" stroke="#fff" paint-order="stroke markers fill">
    <path d="m94.88 50.345c-0.54326-0.40627-0.8925 3e-6 -0.8925 3e-6l26.107 95.029c12.299-5.206 22.695-13.966 29.808-25.117l-54.169-68.828c-0.10457-0.1306-0.85343-1.0834-0.85343-1.0834z" style="font-variation-settings:normal"/>
    <path d="m93.742 20.95c-36.348 0.13426-65.742 29.132-65.742 64.857-2.97e-4 12.185 3.4917 24.123 10.076 34.447l55.019-69.909c0.39623-0.50484 1.3888-0.50484 1.785 0l55.022 69.912c6.5855-10.325 10.078-22.264 10.078-34.45 0-35.82-29.545-64.857-65.99-64.857-0.08267-1.53e-4 -0.16533-1.53e-4 -0.248 0z"/>
   </g>
  </g>
 </g>
 <rect x="-7.5408" y="-5.5408" width="579.08" height="179.08" ry="0" fill="none"/>
</svg>
